<svg id="visual" viewBox="0 0 900 600" width="900" height="600" xmlns="http://www.w3.org/2000/svg" xmlns:xlink="http://www.w3.org/1999/xlink" version="1.1"><rect x="0" y="0" width="900" height="600" fill="#266cd8"></rect><path d="M0 262L25 262C50 262 100 262 150 269.7C200 277.3 250 292.7 300 301.5C350 310.3 400 312.7 450 311C500 309.3 550 303.7 600 302.8C650 302 700 306 750 300.8C800 295.7 850 281.3 875 274.2L900 267L900 601L875 601C850 601 800 601 750 601C700 601 650 601 600 601C550 601 500 601 450 601C400 601 350 601 300 601C250 601 200 601 150 601C100 601 50 601 25 601L0 601Z" fill="#32bb4b"></path><path d="M0 319L25 325.2C50 331.3 100 343.7 150 350.7C200 357.7 250 359.3 300 356C350 352.7 400 344.3 450 338.8C500 333.3 550 330.7 600 328.5C650 326.3 700 324.7 750 323.5C800 322.3 850 321.7 875 321.3L900 321L900 601L875 601C850 601 800 601 750 601C700 601 650 601 600 601C550 601 500 601 450 601C400 601 350 601 300 601C250 601 200 601 150 601C100 601 50 601 25 601L0 601Z" fill="#2aa645"></path><path d="M0 390L25 387C50 384 100 378 150 374C200 370 250 368 300 374.7C350 381.3 400 396.7 450 397.3C500 398 550 384 600 375.8C650 367.7 700 365.3 750 368.7C800 372 850 381 875 385.5L900 390L900 601L875 601C850 601 800 601 750 601C700 601 650 601 600 601C550 601 500 601 450 601C400 601 350 601 300 601C250 601 200 601 150 601C100 601 50 601 25 601L0 601Z" fill="#23913e"></path><path d="M0 445L25 442C50 439 100 433 150 431C200 429 250 431 300 436.5C350 442 400 451 450 453.2C500 455.3 550 450.7 600 447.7C650 444.7 700 443.3 750 440.5C800 437.7 850 433.3 875 431.2L900 429L900 601L875 601C850 601 800 601 750 601C700 601 650 601 600 601C550 601 500 601 450 601C400 601 350 601 300 601C250 601 200 601 150 601C100 601 50 601 25 601L0 601Z" fill="#1d7d38"></path><path d="M0 481L25 479C50 477 100 473 150 476.3C200 479.7 250 490.3 300 492.5C350 494.7 400 488.3 450 484.7C500 481 550 480 600 482.7C650 485.3 700 491.7 750 492.3C800 493 850 488 875 485.5L900 483L900 601L875 601C850 601 800 601 750 601C700 601 650 601 600 601C550 601 500 601 450 601C400 601 350 601 300 601C250 601 200 601 150 601C100 601 50 601 25 601L0 601Z" fill="#196a30"></path><path d="M0 527L25 528.8C50 530.7 100 534.3 150 535.5C200 536.7 250 535.3 300 533.8C350 532.3 400 530.7 450 528.7C500 526.7 550 524.3 600 527C650 529.7 700 537.3 750 541.5C800 545.7 850 546.3 875 546.7L900 547L900 601L875 601C850 601 800 601 750 601C700 601 650 601 600 601C550 601 500 601 450 601C400 601 350 601 300 601C250 601 200 601 150 601C100 601 50 601 25 601L0 601Z" fill="#155729"></path></svg>